<mxfile host="app.diagrams.net" modified="2021-05-28T13:37:52.571Z" agent="5.0 (Windows NT 10.0; Win64; x64) AppleWebKit/537.36 (KHTML, like Gecko) Chrome/91.0.4472.77 Safari/537.36" etag="OHYsBh_VWIkGZwxbNQ1G" version="14.7.2" type="github">
  <diagram id="aE7Hq0kyyPXBzF_pDnfZ" name="Page-1">
    <mxGraphModel dx="1120" dy="630" grid="1" gridSize="10" guides="1" tooltips="1" connect="1" arrows="1" fold="1" page="1" pageScale="1" pageWidth="850" pageHeight="1100" math="0" shadow="0">
      <root>
        <mxCell id="0" />
        <mxCell id="1" parent="0" />
        <mxCell id="s22W97m9CnCKD-Y4o6pk-1" value="" style="rounded=0;whiteSpace=wrap;html=1;" parent="1" vertex="1">
          <mxGeometry x="80" y="10" width="310" height="490" as="geometry" />
        </mxCell>
        <mxCell id="s22W97m9CnCKD-Y4o6pk-2" value="thumbnail" style="whiteSpace=wrap;html=1;aspect=fixed;" parent="1" vertex="1">
          <mxGeometry x="140" y="60" width="200" height="200" as="geometry" />
        </mxCell>
        <mxCell id="s22W97m9CnCKD-Y4o6pk-3" value="name" style="rounded=1;whiteSpace=wrap;html=1;" parent="1" vertex="1">
          <mxGeometry x="175" y="320" width="135" height="20" as="geometry" />
        </mxCell>
        <mxCell id="s22W97m9CnCKD-Y4o6pk-5" value="" style="verticalLabelPosition=bottom;verticalAlign=top;html=1;shape=mxgraph.basic.x" parent="1" vertex="1">
          <mxGeometry x="320" y="320" width="20" height="20" as="geometry" />
        </mxCell>
        <mxCell id="s22W97m9CnCKD-Y4o6pk-6" value="" style="verticalLabelPosition=bottom;verticalAlign=top;html=1;shape=mxgraph.basic.tick" parent="1" vertex="1">
          <mxGeometry x="140" y="320" width="30" height="20" as="geometry" />
        </mxCell>
        <mxCell id="s22W97m9CnCKD-Y4o6pk-8" value="" style="endArrow=none;html=1;" parent="1" edge="1">
          <mxGeometry width="50" height="50" relative="1" as="geometry">
            <mxPoint x="127.5" y="400" as="sourcePoint" />
            <mxPoint x="357.5" y="400" as="targetPoint" />
          </mxGeometry>
        </mxCell>
        <mxCell id="s22W97m9CnCKD-Y4o6pk-9" value="st" style="rounded=1;whiteSpace=wrap;html=1;" parent="1" vertex="1">
          <mxGeometry x="120" y="410" width="30" height="20" as="geometry" />
        </mxCell>
        <mxCell id="s22W97m9CnCKD-Y4o6pk-10" value="et&amp;nbsp;" style="rounded=1;whiteSpace=wrap;html=1;" parent="1" vertex="1">
          <mxGeometry x="340" y="410" width="30" height="20" as="geometry" />
        </mxCell>
        <mxCell id="s22W97m9CnCKD-Y4o6pk-11" value="" style="shape=table;html=1;whiteSpace=wrap;startSize=0;container=1;collapsible=0;childLayout=tableLayout;" parent="1" vertex="1">
          <mxGeometry x="100" y="440" width="280" height="40" as="geometry" />
        </mxCell>
        <object label="" placeholders="1" id="s22W97m9CnCKD-Y4o6pk-12">
          <mxCell style="shape=partialRectangle;html=1;whiteSpace=wrap;collapsible=0;dropTarget=0;pointerEvents=0;fillColor=none;top=0;left=0;bottom=0;right=0;points=[[0,0.5],[1,0.5]];portConstraint=eastwest;" parent="s22W97m9CnCKD-Y4o6pk-11" vertex="1">
            <mxGeometry width="280" height="40" as="geometry" />
          </mxCell>
        </object>
        <mxCell id="s22W97m9CnCKD-Y4o6pk-13" value="shuffle&amp;nbsp;" style="shape=partialRectangle;html=1;whiteSpace=wrap;connectable=0;fillColor=none;top=0;left=0;bottom=0;right=0;overflow=hidden;" parent="s22W97m9CnCKD-Y4o6pk-12" vertex="1">
          <mxGeometry width="56" height="40" as="geometry" />
        </mxCell>
        <mxCell id="s22W97m9CnCKD-Y4o6pk-14" value="back" style="shape=partialRectangle;html=1;whiteSpace=wrap;connectable=0;fillColor=none;top=0;left=0;bottom=0;right=0;overflow=hidden;" parent="s22W97m9CnCKD-Y4o6pk-12" vertex="1">
          <mxGeometry x="56" width="56" height="40" as="geometry" />
        </mxCell>
        <mxCell id="s22W97m9CnCKD-Y4o6pk-15" value="play/stop" style="shape=partialRectangle;html=1;whiteSpace=wrap;connectable=0;fillColor=none;top=0;left=0;bottom=0;right=0;overflow=hidden;" parent="s22W97m9CnCKD-Y4o6pk-12" vertex="1">
          <mxGeometry x="112" width="56" height="40" as="geometry" />
        </mxCell>
        <mxCell id="s22W97m9CnCKD-Y4o6pk-32" value="next" style="shape=partialRectangle;html=1;whiteSpace=wrap;connectable=0;fillColor=none;top=0;left=0;bottom=0;right=0;overflow=hidden;" parent="s22W97m9CnCKD-Y4o6pk-12" vertex="1">
          <mxGeometry x="168" width="56" height="40" as="geometry" />
        </mxCell>
        <mxCell id="s22W97m9CnCKD-Y4o6pk-38" value="repeat" style="shape=partialRectangle;html=1;whiteSpace=wrap;connectable=0;fillColor=none;top=0;left=0;bottom=0;right=0;overflow=hidden;" parent="s22W97m9CnCKD-Y4o6pk-12" vertex="1">
          <mxGeometry x="224" width="56" height="40" as="geometry" />
        </mxCell>
        <mxCell id="s22W97m9CnCKD-Y4o6pk-39" value="st - start time&amp;nbsp;&lt;br&gt;et-end time&amp;nbsp;&lt;br&gt;" style="text;html=1;align=center;verticalAlign=middle;resizable=0;points=[];autosize=1;strokeColor=none;" parent="1" vertex="1">
          <mxGeometry x="475" y="85" width="90" height="30" as="geometry" />
        </mxCell>
        <mxCell id="m9KH-6xGwtKPmnSkWEaA-1" value="" style="rounded=0;whiteSpace=wrap;html=1;" vertex="1" parent="1">
          <mxGeometry x="80" y="520" width="320" height="580" as="geometry" />
        </mxCell>
        <mxCell id="m9KH-6xGwtKPmnSkWEaA-2" value="" style="whiteSpace=wrap;html=1;aspect=fixed;" vertex="1" parent="1">
          <mxGeometry x="100" y="540" width="110" height="110" as="geometry" />
        </mxCell>
        <mxCell id="m9KH-6xGwtKPmnSkWEaA-3" value="" style="whiteSpace=wrap;html=1;aspect=fixed;" vertex="1" parent="1">
          <mxGeometry x="250" y="540" width="110" height="110" as="geometry" />
        </mxCell>
        <mxCell id="m9KH-6xGwtKPmnSkWEaA-4" value="" style="whiteSpace=wrap;html=1;aspect=fixed;" vertex="1" parent="1">
          <mxGeometry x="250" y="670" width="110" height="110" as="geometry" />
        </mxCell>
        <mxCell id="m9KH-6xGwtKPmnSkWEaA-5" value="" style="whiteSpace=wrap;html=1;aspect=fixed;" vertex="1" parent="1">
          <mxGeometry x="100" y="930" width="110" height="110" as="geometry" />
        </mxCell>
        <mxCell id="m9KH-6xGwtKPmnSkWEaA-6" value="" style="whiteSpace=wrap;html=1;aspect=fixed;" vertex="1" parent="1">
          <mxGeometry x="100" y="800" width="110" height="110" as="geometry" />
        </mxCell>
        <mxCell id="m9KH-6xGwtKPmnSkWEaA-7" value="" style="whiteSpace=wrap;html=1;aspect=fixed;" vertex="1" parent="1">
          <mxGeometry x="100" y="670" width="110" height="110" as="geometry" />
        </mxCell>
        <mxCell id="m9KH-6xGwtKPmnSkWEaA-8" value="" style="whiteSpace=wrap;html=1;aspect=fixed;" vertex="1" parent="1">
          <mxGeometry x="250" y="800" width="110" height="110" as="geometry" />
        </mxCell>
        <mxCell id="m9KH-6xGwtKPmnSkWEaA-9" value="" style="whiteSpace=wrap;html=1;aspect=fixed;" vertex="1" parent="1">
          <mxGeometry x="250" y="930" width="110" height="110" as="geometry" />
        </mxCell>
        <mxCell id="m9KH-6xGwtKPmnSkWEaA-10" value="" style="rounded=0;whiteSpace=wrap;html=1;" vertex="1" parent="1">
          <mxGeometry x="80" y="1040" width="320" height="60" as="geometry" />
        </mxCell>
        <mxCell id="m9KH-6xGwtKPmnSkWEaA-11" value="thubnail" style="rounded=0;whiteSpace=wrap;html=1;" vertex="1" parent="1">
          <mxGeometry x="120" y="550" width="70" height="60" as="geometry" />
        </mxCell>
        <mxCell id="m9KH-6xGwtKPmnSkWEaA-12" value="" style="rounded=0;whiteSpace=wrap;html=1;" vertex="1" parent="1">
          <mxGeometry x="270" y="680" width="70" height="60" as="geometry" />
        </mxCell>
        <mxCell id="m9KH-6xGwtKPmnSkWEaA-13" value="" style="rounded=0;whiteSpace=wrap;html=1;" vertex="1" parent="1">
          <mxGeometry x="120" y="680" width="70" height="60" as="geometry" />
        </mxCell>
        <mxCell id="m9KH-6xGwtKPmnSkWEaA-14" value="" style="rounded=0;whiteSpace=wrap;html=1;" vertex="1" parent="1">
          <mxGeometry x="270" y="810" width="70" height="60" as="geometry" />
        </mxCell>
        <mxCell id="m9KH-6xGwtKPmnSkWEaA-15" value="" style="rounded=0;whiteSpace=wrap;html=1;" vertex="1" parent="1">
          <mxGeometry x="120" y="810" width="70" height="60" as="geometry" />
        </mxCell>
        <mxCell id="m9KH-6xGwtKPmnSkWEaA-16" value="" style="rounded=0;whiteSpace=wrap;html=1;" vertex="1" parent="1">
          <mxGeometry x="270" y="940" width="70" height="60" as="geometry" />
        </mxCell>
        <mxCell id="m9KH-6xGwtKPmnSkWEaA-17" value="" style="rounded=0;whiteSpace=wrap;html=1;" vertex="1" parent="1">
          <mxGeometry x="120" y="940" width="70" height="60" as="geometry" />
        </mxCell>
        <mxCell id="m9KH-6xGwtKPmnSkWEaA-18" value="" style="rounded=0;whiteSpace=wrap;html=1;" vertex="1" parent="1">
          <mxGeometry x="270" y="550" width="70" height="60" as="geometry" />
        </mxCell>
        <mxCell id="m9KH-6xGwtKPmnSkWEaA-19" value="song name" style="rounded=0;whiteSpace=wrap;html=1;" vertex="1" parent="1">
          <mxGeometry x="115" y="620" width="80" height="30" as="geometry" />
        </mxCell>
        <mxCell id="m9KH-6xGwtKPmnSkWEaA-20" value="" style="rounded=0;whiteSpace=wrap;html=1;" vertex="1" parent="1">
          <mxGeometry x="265" y="750" width="80" height="30" as="geometry" />
        </mxCell>
        <mxCell id="m9KH-6xGwtKPmnSkWEaA-21" value="" style="rounded=0;whiteSpace=wrap;html=1;" vertex="1" parent="1">
          <mxGeometry x="265" y="880" width="80" height="30" as="geometry" />
        </mxCell>
        <mxCell id="m9KH-6xGwtKPmnSkWEaA-22" value="" style="rounded=0;whiteSpace=wrap;html=1;" vertex="1" parent="1">
          <mxGeometry x="115" y="1010" width="80" height="30" as="geometry" />
        </mxCell>
        <mxCell id="m9KH-6xGwtKPmnSkWEaA-23" value="" style="rounded=0;whiteSpace=wrap;html=1;" vertex="1" parent="1">
          <mxGeometry x="115" y="880" width="80" height="30" as="geometry" />
        </mxCell>
        <mxCell id="m9KH-6xGwtKPmnSkWEaA-24" value="" style="rounded=0;whiteSpace=wrap;html=1;" vertex="1" parent="1">
          <mxGeometry x="115" y="750" width="80" height="30" as="geometry" />
        </mxCell>
        <mxCell id="m9KH-6xGwtKPmnSkWEaA-26" value="" style="rounded=0;whiteSpace=wrap;html=1;" vertex="1" parent="1">
          <mxGeometry x="265" y="1010" width="80" height="30" as="geometry" />
        </mxCell>
        <mxCell id="m9KH-6xGwtKPmnSkWEaA-27" value="" style="rounded=0;whiteSpace=wrap;html=1;" vertex="1" parent="1">
          <mxGeometry x="265" y="620" width="80" height="30" as="geometry" />
        </mxCell>
        <mxCell id="m9KH-6xGwtKPmnSkWEaA-28" value="thumnaiul" style="whiteSpace=wrap;html=1;aspect=fixed;" vertex="1" parent="1">
          <mxGeometry x="80" y="1040" width="60" height="60" as="geometry" />
        </mxCell>
        <mxCell id="m9KH-6xGwtKPmnSkWEaA-29" value="name" style="rounded=0;whiteSpace=wrap;html=1;" vertex="1" parent="1">
          <mxGeometry x="160" y="1050" width="120" height="20" as="geometry" />
        </mxCell>
        <mxCell id="m9KH-6xGwtKPmnSkWEaA-30" value="singer" style="rounded=0;whiteSpace=wrap;html=1;" vertex="1" parent="1">
          <mxGeometry x="160" y="1080" width="120" height="20" as="geometry" />
        </mxCell>
        <mxCell id="m9KH-6xGwtKPmnSkWEaA-31" value="back/play/next" style="rounded=0;whiteSpace=wrap;html=1;" vertex="1" parent="1">
          <mxGeometry x="290" y="1045" width="100" height="45" as="geometry" />
        </mxCell>
        <mxCell id="m9KH-6xGwtKPmnSkWEaA-32" value="" style="rounded=0;whiteSpace=wrap;html=1;" vertex="1" parent="1">
          <mxGeometry x="490" y="520" width="320" height="580" as="geometry" />
        </mxCell>
        <mxCell id="m9KH-6xGwtKPmnSkWEaA-33" value="" style="rounded=0;whiteSpace=wrap;html=1;" vertex="1" parent="1">
          <mxGeometry x="500" y="550" width="300" height="70" as="geometry" />
        </mxCell>
        <mxCell id="m9KH-6xGwtKPmnSkWEaA-34" value="thumnaiul" style="whiteSpace=wrap;html=1;aspect=fixed;" vertex="1" parent="1">
          <mxGeometry x="505" y="555" width="60" height="60" as="geometry" />
        </mxCell>
        <mxCell id="m9KH-6xGwtKPmnSkWEaA-35" value="" style="rounded=0;whiteSpace=wrap;html=1;" vertex="1" parent="1">
          <mxGeometry x="500" y="740" width="300" height="70" as="geometry" />
        </mxCell>
        <mxCell id="m9KH-6xGwtKPmnSkWEaA-36" value="" style="rounded=0;whiteSpace=wrap;html=1;" vertex="1" parent="1">
          <mxGeometry x="500" y="840" width="300" height="70" as="geometry" />
        </mxCell>
        <mxCell id="m9KH-6xGwtKPmnSkWEaA-37" value="" style="rounded=0;whiteSpace=wrap;html=1;" vertex="1" parent="1">
          <mxGeometry x="500" y="935" width="300" height="70" as="geometry" />
        </mxCell>
        <mxCell id="m9KH-6xGwtKPmnSkWEaA-38" value="" style="rounded=0;whiteSpace=wrap;html=1;" vertex="1" parent="1">
          <mxGeometry x="500" y="1020" width="300" height="70" as="geometry" />
        </mxCell>
        <mxCell id="m9KH-6xGwtKPmnSkWEaA-39" value="" style="rounded=0;whiteSpace=wrap;html=1;" vertex="1" parent="1">
          <mxGeometry x="500" y="640" width="300" height="70" as="geometry" />
        </mxCell>
        <mxCell id="m9KH-6xGwtKPmnSkWEaA-40" value="name" style="rounded=0;whiteSpace=wrap;html=1;" vertex="1" parent="1">
          <mxGeometry x="580" y="555" width="180" height="20" as="geometry" />
        </mxCell>
        <mxCell id="m9KH-6xGwtKPmnSkWEaA-41" value="singer" style="rounded=0;whiteSpace=wrap;html=1;" vertex="1" parent="1">
          <mxGeometry x="580" y="590" width="180" height="20" as="geometry" />
        </mxCell>
      </root>
    </mxGraphModel>
  </diagram>
</mxfile>
